<svg width="20" height="20" viewBox="0 0 20 20" fill="none" xmlns="http://www.w3.org/2000/svg">
<path d="M13.4562 0.783936H6.54418C3.36351 0.783936 0.78418 3.36326 0.78418 6.54394V13.4559C0.78418 16.6366 3.36351 19.2159 6.54418 19.2159H13.4562C16.6369 19.2159 19.2162 16.6366 19.2162 13.4559V6.54394C19.2162 3.36326 16.6369 0.783936 13.4562 0.783936ZM17.4882 13.4559C17.4882 15.6793 15.6795 17.4879 13.4562 17.4879H6.54418C4.32082 17.4879 2.51218 15.6793 2.51218 13.4559V6.54394C2.51218 4.32058 4.32082 2.51194 6.54418 2.51194H13.4562C15.6795 2.51194 17.4882 4.32058 17.4882 6.54394V13.4559Z" fill="black"/>
<path d="M9.9996 5.39209C7.45483 5.39209 5.3916 7.45532 5.3916 10.0001C5.3916 12.5449 7.45483 14.6081 9.9996 14.6081C12.5444 14.6081 14.6076 12.5449 14.6076 10.0001C14.6076 7.45532 12.5444 5.39209 9.9996 5.39209ZM9.9996 12.8801C8.41215 12.8801 7.1196 11.5875 7.1196 10.0001C7.1196 8.41148 8.41215 7.12009 9.9996 7.12009C11.5871 7.12009 12.8796 8.41148 12.8796 10.0001C12.8796 11.5875 11.5871 12.8801 9.9996 12.8801Z" fill="black"/>
<path d="M14.9539 5.6604C15.293 5.6604 15.5679 5.3855 15.5679 5.04639C15.5679 4.70728 15.293 4.43237 14.9539 4.43237C14.6147 4.43237 14.3398 4.70728 14.3398 5.04639C14.3398 5.3855 14.6147 5.6604 14.9539 5.6604Z" fill="black"/>
</svg>
