<svg width="298" height="86" viewBox="0 0 298 86" fill="none" xmlns="http://www.w3.org/2000/svg">
<g clip-path="url(#clip0_1102_8918)">
<path d="M264.94 63.2959H32.8613V82.1525H264.94V63.2959Z" fill="#979797"/>
<path d="M254.492 70.2458C254.084 71.4553 253.705 72.4608 253.384 73.2768L252.991 74.326H256.022L255.629 73.2768C255.308 72.4608 254.944 71.4407 254.521 70.2458H254.492ZM256.707 76.1039H252.321L251.199 79.0475H248.94L253.545 67.4479H255.483L260.088 79.0475H257.844L256.707 76.1039ZM239.788 72.2276C240.371 72.2276 240.794 72.1693 241.085 72.0528C241.406 71.9216 241.625 71.7322 241.77 71.499C241.901 71.2659 241.974 71.0036 241.974 70.7121C241.974 70.4061 241.901 70.1292 241.741 69.8961C241.581 69.6629 241.319 69.4735 240.94 69.3569C240.779 69.3132 240.605 69.284 240.401 69.2549C240.197 69.2403 239.934 69.2257 239.628 69.2257H237.894V72.2276H239.788ZM237.879 74.0054V77.2697H239.264C239.628 77.2697 239.949 77.2551 240.226 77.2405C240.488 77.2259 240.721 77.1822 240.911 77.1385C241.202 77.0802 241.45 76.9928 241.654 76.8908C241.858 76.7888 242.018 76.6576 242.135 76.5265C242.251 76.3953 242.339 76.235 242.397 76.0747C242.441 75.9144 242.47 75.7396 242.47 75.5501C242.47 75.2295 242.382 74.9381 242.207 74.7049C242.033 74.4572 241.756 74.2823 241.362 74.1657C241.187 74.1075 240.998 74.0783 240.765 74.0492C240.546 74.02 240.255 74.02 239.89 74.02H237.879V74.0054ZM244.146 70.5372C244.146 71.0473 244.029 71.499 243.81 71.9216C243.592 72.3442 243.213 72.6939 242.688 72.9708V73C242.98 73.102 243.242 73.2186 243.475 73.3789C243.708 73.5391 243.927 73.714 244.087 73.918C244.262 74.1366 244.393 74.3698 244.495 74.6321C244.597 74.8944 244.641 75.2004 244.641 75.521C244.641 75.7978 244.597 76.1039 244.51 76.439C244.422 76.7596 244.262 77.0802 244.044 77.3717C243.81 77.6777 243.519 77.9546 243.14 78.2023C242.761 78.45 242.295 78.654 241.712 78.8143C241.566 78.8435 241.406 78.8726 241.246 78.9017C241.071 78.9309 240.881 78.96 240.677 78.9746C240.473 78.9892 240.24 79.0038 239.978 79.0183C239.716 79.0329 239.439 79.0329 239.118 79.0329H235.737V67.4333H239.774C240.634 67.4333 241.333 67.5208 241.858 67.6956C242.251 67.8268 242.586 67.9871 242.878 68.1911C243.169 68.3951 243.402 68.6283 243.592 68.876C243.781 69.1237 243.912 69.386 244.014 69.6775C244.102 69.9835 244.146 70.2604 244.146 70.5372ZM227.519 67.4625H229.748V79.062H227.621V73.7286C227.621 73.0728 227.65 71.9945 227.723 70.5081H227.693C227.3 71.1784 226.6 72.2276 225.61 73.6411L221.821 79.062H219.591V67.4625H221.719V72.796C221.719 73.6412 221.69 74.7195 221.617 76.0019H221.646C222.01 75.3898 222.695 74.3698 223.686 72.9417L227.519 67.4625ZM213.587 67.4625V79.062H211.46V69.284H206.505V79.062H204.378V67.4625H213.587ZM188.45 79.0475H186.323V69.2257H182.578V67.4479H192.195V69.2257H188.465V79.0475H188.45ZM172.493 77.2697H178.206V79.0475H170.366V67.4479H177.885V69.2257H172.493V72.2276H177.128V74.0054H172.493V77.2697ZM155.896 79.0475V67.4479H158.023V72.7231H158.052L162.439 67.4479H165.076L160.238 73.1894L165.47 79.0329H162.745L158.052 73.8014H158.023V79.0329H155.896V79.0475ZM144.121 72.7231C144.238 72.7377 144.398 72.7522 144.588 72.7668C144.777 72.7814 144.966 72.7814 145.17 72.7814C145.739 72.7814 146.22 72.7377 146.598 72.6357C146.992 72.5482 147.298 72.4171 147.531 72.2568C147.764 72.0965 147.939 71.8925 148.041 71.6593C148.143 71.4262 148.201 71.1638 148.201 70.887C148.201 70.5518 148.129 70.2458 147.968 69.9981C147.808 69.7503 147.546 69.5609 147.152 69.4152C146.948 69.3423 146.701 69.2986 146.409 69.2694C146.118 69.2403 145.753 69.2257 145.316 69.2257H144.121V72.7231ZM145.2 74.5592C145.01 74.5592 144.821 74.5592 144.631 74.5446C144.442 74.5446 144.267 74.5301 144.107 74.5155V79.0475H141.979V67.4479H145.331C145.884 67.4479 146.38 67.4771 146.803 67.5208C147.225 67.5645 147.589 67.6374 147.925 67.7394C148.711 67.9871 149.324 68.366 149.761 68.9051C150.183 69.4297 150.402 70.1147 150.402 70.9307C150.402 71.4844 150.285 71.9945 150.052 72.4462C149.819 72.898 149.484 73.2768 149.032 73.5829C148.595 73.9035 148.041 74.1366 147.4 74.2969C146.773 74.4718 146.045 74.5592 145.2 74.5592ZM131.516 70.2458C131.108 71.4553 130.729 72.4608 130.409 73.2768L130.015 74.326H133.046L132.653 73.2768C132.332 72.4608 131.968 71.4407 131.545 70.2458H131.516ZM133.731 76.1039H129.345L128.223 79.0475H125.964L130.569 67.4479H132.507L137.112 79.0475H134.868L133.731 76.1039ZM115.137 75.9436C115.385 75.0255 115.705 74.0492 116.084 73L118.08 67.4479H121.068V79.0475H118.94V73.1748C118.94 72.3151 118.969 71.3096 119.042 70.1729H118.969C118.867 70.5081 118.751 70.8724 118.62 71.2804C118.488 71.6885 118.343 72.0965 118.197 72.4899L115.807 79.0475H114.437L112.048 72.4899C111.902 72.0965 111.771 71.6885 111.625 71.2804C111.494 70.8724 111.377 70.5081 111.275 70.1729H111.202C111.275 71.2513 111.304 72.2422 111.304 73.1603V79.0475H109.177V67.4479H112.135L114.131 72.9708C114.467 73.8889 114.787 74.8798 115.079 75.929H115.137V75.9436ZM97.3878 72.7231C97.5044 72.7377 97.6647 72.7522 97.8541 72.7668C98.0435 72.7814 98.233 72.7814 98.437 72.7814C99.0053 72.7814 99.4862 72.7377 99.8651 72.6357C100.259 72.5482 100.565 72.4171 100.798 72.2568C101.031 72.0965 101.206 71.8925 101.308 71.6593C101.41 71.4262 101.468 71.1638 101.468 70.887C101.468 70.5518 101.395 70.2458 101.235 69.9981C101.075 69.7503 100.812 69.5609 100.419 69.4152C100.215 69.3423 99.9671 69.2986 99.6756 69.2694C99.3842 69.2403 99.0199 69.2257 98.5827 69.2257H97.3878V72.7231ZM98.4807 74.5592C98.2913 74.5592 98.1018 74.5592 97.9124 74.5446C97.7229 74.5446 97.5481 74.5301 97.3878 74.5155V79.0475H95.2602V67.4479H98.6119C99.1656 67.4479 99.6611 67.4771 100.084 67.5208C100.506 67.5645 100.871 67.6374 101.206 67.7394C101.993 67.9871 102.605 68.366 103.042 68.9051C103.464 69.4297 103.683 70.1147 103.683 70.9307C103.683 71.4844 103.566 71.9945 103.333 72.4462C103.1 72.898 102.765 73.2768 102.313 73.5829C101.876 73.9035 101.322 74.1366 100.681 74.2969C100.04 74.4718 99.3113 74.5592 98.4807 74.5592ZM84.0687 77.2697H89.781V79.0475H81.9411V67.4479H89.4604V69.2257H84.0687V72.2276H88.7027V74.0054H84.0687V77.2697ZM75.9228 67.4625V79.062H73.7952V69.284H68.8406V79.062H66.7131V67.4625H75.9228ZM57.6636 76.3225C57.4013 76.8616 57.1245 77.3279 56.8476 77.6923C56.5707 78.0711 56.2647 78.3771 55.9295 78.5957C55.5944 78.8289 55.2301 78.9892 54.8366 79.0912C54.4432 79.1932 53.9914 79.2369 53.5105 79.2369C53.3211 79.2369 53.1171 79.2223 52.8839 79.2078C52.6508 79.1932 52.4322 79.1495 52.2282 79.1058V77.2988C52.4467 77.3571 52.6508 77.3862 52.8548 77.4154C53.0588 77.4445 53.2482 77.4445 53.4085 77.4445C53.6708 77.4445 53.9186 77.4154 54.1226 77.3571C54.3412 77.2988 54.5306 77.1968 54.72 77.0511C54.9095 76.9053 55.0843 76.7159 55.2592 76.4682C55.4341 76.2204 55.5944 75.8999 55.7692 75.521L51.2518 67.4333H53.6125L56.8767 73.3643L59.6018 67.4333H61.9042L57.6636 76.3225ZM44.5048 69.0217C43.9219 69.0217 43.3973 69.1092 42.9019 69.3132C42.4064 69.5026 41.9984 69.7795 41.6487 70.1438C41.2989 70.5081 41.0221 70.9598 40.8326 71.499C40.6286 72.0382 40.5412 72.6502 40.5412 73.3351C40.5412 74.02 40.6286 74.6175 40.8035 75.1421C40.9783 75.6667 41.2406 76.0893 41.5758 76.439C41.911 76.7888 42.319 77.0511 42.7999 77.2259C43.2808 77.4008 43.8345 77.4882 44.4466 77.4882C44.8837 77.4882 45.3355 77.4591 45.7872 77.3862C46.2389 77.3279 46.6761 77.2259 47.0696 77.0948V78.9017C46.6615 79.0183 46.2244 79.1058 45.7581 79.1786C45.2917 79.2369 44.7963 79.2806 44.3008 79.2806C43.3245 79.2806 42.4501 79.1349 41.7069 78.858C40.9638 78.5812 40.3372 78.1731 39.8417 77.6631C39.3462 77.1531 38.9674 76.541 38.7051 75.827C38.4573 75.1129 38.3262 74.326 38.3262 73.4663C38.3262 72.5774 38.4573 71.7613 38.7342 71.0036C38.9965 70.2458 39.39 69.59 39.9 69.0363C40.41 68.4825 41.0366 68.0454 41.7944 67.7248C42.5522 67.4042 43.4119 67.2439 44.3737 67.2439C44.8691 67.2439 45.3355 67.273 45.7726 67.3459C46.2098 67.4188 46.6033 67.5062 46.953 67.6228V69.4152C46.4867 69.2695 46.0641 69.182 45.6561 69.1237C45.2772 69.0509 44.8837 69.0217 44.5048 69.0217Z" fill="#FFED00"/>
<path fill-rule="evenodd" clip-rule="evenodd" d="M164.785 37.8807V40.4892L168.894 40.5475C170.366 40.562 171.43 40.2997 171.444 39.3088C171.459 38.3179 170.424 37.8662 169.113 37.8662L164.785 37.8807ZM164.77 17.8001L164.756 19.6653L168.647 19.6945C169.594 19.7091 170.366 19.4322 170.381 18.7327C170.395 18.0332 169.506 17.8147 168.53 17.8147L164.77 17.8001ZM103.654 23.7893C104.266 22.8858 104.936 21.9969 105.709 21.1663C109.993 16.474 115.574 14.3756 121.884 14.3756C127.611 14.3756 132.551 16.5177 136.529 20.6563C140.464 24.7657 142.489 29.7494 142.489 35.4326C142.489 37.5164 142.154 39.5566 140.741 41.1595C139.997 42.0047 139.079 42.573 138.074 42.9373C138.424 43.5639 138.744 44.2051 139.05 44.8172C139.619 45.9246 140.245 47.0613 140.697 48.2125C141.09 49.2034 141.367 50.0049 141.251 51.1124C141.119 52.3365 140.551 53.2837 139.721 54.158C135.422 58.7483 129.17 60.1035 123.108 60.1035C116.857 60.1035 111.057 58.3257 106.467 53.9977C103.435 51.127 101.527 47.7025 100.565 43.9137C99.6758 45.3709 98.7432 46.799 97.7814 48.2125C96.0036 50.8355 94.1383 53.4294 92.1419 55.8775C91.5882 56.5624 91.1073 57.1745 90.3933 57.7137C89.4315 58.4423 88.3968 58.7629 87.2456 58.996C85.6427 59.3166 83.8794 59.3895 82.2473 59.3895C80.7172 59.3895 79.158 59.3312 77.6425 59.1709C76.3747 59.0397 75.238 58.69 74.1888 57.9614C73.4457 57.4368 72.921 56.8102 72.309 56.1544C71.3618 55.1052 70.4729 53.954 69.6423 52.8028C68.5931 51.3601 67.573 49.8883 66.5675 48.4311C65.3289 46.6241 64.0902 44.7734 62.9682 42.8936C62.4873 42.0921 61.9772 41.2178 61.5546 40.3435C61.5692 42.369 61.6129 44.4091 61.6567 46.4347C61.7149 48.8828 61.7587 51.331 61.7732 53.7791C61.7732 54.9012 61.7441 55.7464 61.1612 56.7665C60.4326 58.0488 59.1794 58.792 57.7513 59.0252C56.8332 59.1855 55.8714 59.2583 54.9534 59.302C53.8167 59.3603 52.6655 59.3895 51.5289 59.3895C50.3923 59.3895 49.241 59.3603 48.1044 59.302C47.1718 59.2583 46.1954 59.1855 45.2774 59.0252C44.1116 58.8357 43.077 58.3986 42.3046 57.5534C42.1735 57.7428 42.0277 57.9177 41.8529 58.1071C40.5705 59.4623 38.9238 59.6955 37.1752 59.6955C30.6759 59.6955 24.1767 59.404 17.6774 59.3458C13.4077 59.3166 9.13803 59.3166 4.86834 59.0834L4.64976 59.0689L4.43117 59.0252C1.99759 58.6026 0.292632 56.7227 0.292632 54.2163C0.292632 50.2089 0.350924 46.2015 0.409213 42.1941C0.467503 38.2305 0.525789 34.2522 0.525789 30.274C0.525789 26.0772 0.394638 21.8512 0.263487 17.6398C0.146908 13.749 0.030335 9.8436 0.00119041 5.93822C0.00119041 5.38447 -0.0133861 4.83073 0.0594754 4.27698C0.190626 3.14034 0.642371 2.1057 1.53128 1.33337C2.42019 0.561036 3.48397 0.240445 4.63518 0.240445C5.14521 0.240445 5.66982 0.284159 6.19442 0.327876C9.72092 0.60475 13.0726 0.648468 16.6282 0.28416C17.2548 0.211299 17.896 0.153008 18.5372 0.196724C19.805 0.269586 20.9708 0.750474 21.8014 1.74139C22.6466 2.76145 22.8652 3.94181 22.7631 5.22417C22.7194 5.73421 22.6611 6.24424 22.6174 6.76884C22.2677 12.6852 21.9179 18.6016 21.7139 24.5325C21.5391 29.6911 21.4516 34.8934 21.6411 40.052C27.2514 39.9354 32.8472 39.4545 38.4575 39.4108C38.6761 39.4108 38.9093 39.3962 39.1279 39.3962C39.9002 39.3962 40.6434 39.5128 41.3283 39.8043C41.3283 39.3817 41.3283 38.9591 41.3283 38.5365C41.3283 35.5637 41.2991 32.5764 41.1534 29.6037C41.0514 27.3741 40.8911 25.1445 40.5997 22.9441C40.3665 21.1809 40.6579 19.4322 41.984 18.1352C42.2318 17.9021 42.4795 17.6981 42.7564 17.5378C41.3866 15.8765 40.5705 13.7636 40.5705 11.2863C40.5705 5.20961 45.7874 1.18764 51.5872 1.18764C58.3779 1.18764 63.4345 6.4774 62.3561 13.3555C62.0938 14.9731 61.4381 16.4594 60.418 17.7126C60.52 17.7855 60.622 17.8729 60.7386 17.9604C60.8552 18.0624 60.9718 18.1644 61.0738 18.2664C61.1175 18.2227 61.1612 18.179 61.2049 18.1207C62.1958 17.1152 63.4928 16.7363 64.8771 16.7363C68.4765 16.7363 72.0613 16.9403 75.6606 16.9549C76.8701 16.9549 77.8902 17.1298 78.8957 17.8875C80.1635 18.8493 80.6735 20.2628 80.6735 21.8075C80.6735 23.7019 80.5715 25.5963 80.4987 27.4907C80.4112 29.6037 80.3967 31.6729 80.5715 33.7859C80.6735 34.1211 80.8775 34.5437 81.0087 34.8497C81.3293 35.5346 81.679 36.2049 82.0579 36.8607C82.4076 36.2486 82.7428 35.6075 83.0342 34.9663C83.1654 34.6894 83.3257 34.3397 83.4423 34.0191C83.4714 31.7604 83.4568 29.5162 83.4131 27.2575C83.384 25.4651 83.3257 23.6873 83.2965 21.8949C83.2674 20.496 83.6317 19.1845 84.6809 18.1935C85.6281 17.3046 86.7939 16.9695 88.0617 16.9549C91.4862 16.9403 94.8961 16.7363 98.306 16.7363C100.608 16.7363 102.43 18.179 103.071 20.3648C103.435 21.3703 103.567 22.6527 103.654 23.7893ZM191.379 48.5622C190.068 51.331 188.13 53.7063 185.419 55.5132C179.867 59.2 172.537 59.4478 166.082 59.4769C165.543 59.4769 165.004 59.4769 164.464 59.4769C161.419 59.4623 158.373 59.3749 155.327 59.2583C152.894 59.1709 150.475 59.0543 148.041 58.996C146.438 58.9523 144.981 58.7046 143.815 57.4514C142.548 56.0816 142.533 54.5369 142.577 52.8174C142.664 49.2034 142.824 45.5895 143.028 41.9756C143.291 37.4581 143.393 32.9407 143.364 28.4087C143.349 23.7456 143.203 19.0824 143.028 14.4339C142.926 11.942 142.824 9.45015 142.693 6.95828C142.664 6.33167 142.591 5.69049 142.577 5.06388C142.533 3.78151 142.81 2.61573 143.699 1.62481C144.588 0.633893 145.724 0.240443 147.007 0.153009C147.662 0.109292 148.318 0.123866 148.974 0.109294C156.377 -0.00728437 163.823 -0.0947218 171.226 0.196724C176.501 0.400737 182.272 1.20221 186.556 4.56842C190.053 7.30801 191.817 11.1551 192.385 15.5122C193.012 20.2919 191.365 24.1099 188.713 27.6073C189.208 28.1319 189.674 28.6856 190.082 29.2685C191.03 26.3395 192.545 23.6144 194.746 21.1954C199.03 16.5031 204.611 14.4047 210.921 14.4047C216.648 14.4047 221.588 16.5469 225.566 20.6854C227.052 22.2301 228.262 23.9059 229.195 25.6983C230.04 24.1099 231.089 22.5944 232.371 21.1954C236.656 16.5031 242.237 14.4047 248.547 14.4047C254.274 14.4047 259.214 16.5469 263.192 20.6854C263.716 21.2391 264.212 21.8075 264.678 22.3904C264.591 21.1371 264.882 19.9276 265.757 18.9367C266.689 17.8875 267.84 17.5086 269.181 17.3483C272.372 16.9695 275.52 16.3574 278.682 15.7308C280.475 15.3811 282.209 15.2645 283.739 16.5031C284.234 16.9112 284.599 17.3775 284.861 17.8875C287.12 16.8383 289.539 16.1971 292.074 16.1971C293.837 16.1971 295.469 16.4303 296.694 17.8584C297.757 19.097 297.888 20.496 297.786 22.0261C297.743 22.7547 297.655 23.4833 297.582 24.2119C297.48 25.0862 297.378 26.0043 297.349 26.8932C297.349 27.7675 297.364 28.6565 297.378 29.5308C297.408 30.5071 297.451 31.5126 297.451 32.489C297.451 35.5783 295.193 37.6476 292.147 37.6476C291.389 37.6476 290.617 37.5893 289.859 37.531C289.291 37.4873 288.708 37.4581 288.125 37.4581C287.804 37.4581 287.163 37.4727 286.682 37.5456C286.639 37.8953 286.624 38.3179 286.624 38.5511C286.624 40.1249 286.639 41.6987 286.668 43.2725C286.697 44.89 286.712 46.5075 286.712 48.1251C286.712 49.1014 286.784 50.1069 286.843 51.0687C286.916 52.1907 286.988 53.3274 286.988 54.4349C286.988 55.3238 286.755 56.1836 286.274 56.9413C285.4 58.3111 283.957 58.996 282.384 59.1272C280.518 59.2875 278.551 59.2875 276.671 59.2875C274.704 59.2875 272.649 59.2583 270.697 59.0397C268.146 58.7483 266.281 56.9122 266.179 54.3474C261.895 58.792 255.731 60.1181 249.742 60.1181C243.49 60.1181 237.69 58.3403 233.1 54.0123C232.022 52.9922 231.074 51.8993 230.273 50.7335C230.273 50.8647 230.258 50.9958 230.244 51.127C230.113 52.351 229.544 53.2982 228.714 54.1726C224.415 58.7629 218.163 60.1181 212.101 60.1181C205.85 60.1181 200.05 58.3403 195.46 54.0123C193.769 52.3656 192.399 50.5441 191.379 48.5622Z" fill="#979797"/>
<path d="M166.053 55.7464C159.35 55.7756 152.413 55.3676 148.143 55.2656C146.264 55.2219 146.249 54.9887 146.307 52.9049C146.38 50.3256 146.497 46.7553 146.744 42.1796C147.284 32.5328 147.109 23.9497 146.744 14.2736C146.672 12.4812 146.584 10.1642 146.409 6.75433C146.249 3.56299 145.812 3.86901 149.032 3.81072C154.147 3.73786 163.328 3.59214 171.08 3.88358C179.576 4.21875 187.416 6.15686 188.684 15.9495C189.296 20.6126 187.066 24.11 183.481 27.957C188.727 31.5127 190.593 37.3562 189.325 43.0685C186.673 54.9595 176.355 55.7173 166.053 55.7464ZM161.069 14.1862L161.025 23.2065C165.266 23.2939 174.111 24.7949 174.038 18.485C173.98 12.8601 165.222 14.2008 161.069 14.1862ZM161.069 34.2669V43.972C166.854 44.2343 174.782 45.779 175.16 39.5275C175.554 32.6493 166.956 34.2814 161.069 34.2669ZM138.773 35.4327C138.773 38.2014 138.074 39.4983 135.378 39.7461L115.866 41.5384C116.594 45.0358 120.66 46.2744 123.808 46.2744C126.795 46.2744 129.068 45.2835 131.589 43.8117C133.717 42.5585 133.819 42.7334 135.757 46.5367C136.427 47.8483 136.966 48.8537 137.258 49.6115C137.651 50.617 137.783 50.8356 137.025 51.6516C134.052 54.8284 129.418 56.4168 123.137 56.4168C117.323 56.4168 112.616 54.7118 109.06 51.3165C105.388 47.8774 103.567 43.2726 103.567 37.5019C103.567 31.877 105.213 27.2721 108.492 23.6874C111.873 19.9714 116.347 18.1207 121.928 18.1207C126.62 18.1207 130.598 19.8403 133.877 23.2502C137.127 26.6455 138.773 30.7112 138.773 35.4327ZM120.471 27.4907C116.726 27.4907 114.991 31.2212 115.327 34.5583L125.906 33.6985C125.702 30.4198 124.172 27.4907 120.471 27.4907ZM227.796 35.4327C227.796 38.2014 227.096 39.4983 224.4 39.7461L204.888 41.5384C205.617 45.0358 209.682 46.2744 212.83 46.2744C215.817 46.2744 218.091 45.2835 220.612 43.8117C222.739 42.5585 222.841 42.7334 224.779 46.5367C225.45 47.8483 225.989 48.8537 226.28 49.6115C226.674 50.617 226.805 50.8356 226.047 51.6516C223.074 54.8284 218.44 56.4168 212.16 56.4168C206.345 56.4168 201.638 54.7118 198.083 51.3165C194.411 47.8774 192.589 43.2726 192.589 37.5019C192.589 31.877 194.236 27.2721 197.514 23.6874C200.895 19.9714 205.369 18.1207 210.95 18.1207C215.642 18.1207 219.621 19.8403 222.899 23.2502C226.164 26.6455 227.796 30.7112 227.796 35.4327ZM209.493 27.4907C205.748 27.4907 204.014 31.2212 204.349 34.5583L214.928 33.6985C214.739 30.4198 213.209 27.4907 209.493 27.4907ZM265.421 35.4327C265.421 38.2014 264.722 39.4983 262.026 39.7461L242.514 41.5384C243.242 45.0358 247.308 46.2744 250.456 46.2744C253.443 46.2744 255.716 45.2835 258.237 43.8117C260.365 42.5585 260.467 42.7334 262.405 46.5367C263.075 47.8483 263.614 48.8537 263.906 49.6115C264.299 50.617 264.431 50.8356 263.673 51.6516C260.7 54.8284 256.066 56.4168 249.785 56.4168C243.971 56.4168 239.264 54.7118 235.708 51.3165C232.036 47.8774 230.215 43.2726 230.215 37.5019C230.215 31.877 231.861 27.2721 235.14 23.6874C238.521 19.9714 242.995 18.1207 248.576 18.1207C253.268 18.1207 257.246 19.8403 260.525 23.2502C263.789 26.6455 265.421 30.7112 265.421 35.4327ZM247.119 27.4907C243.374 27.4907 241.639 31.2212 241.975 34.5583L252.554 33.6985C252.365 30.4198 250.835 27.4907 247.119 27.4907ZM293.735 32.4745C293.735 33.4362 293.211 33.9171 292.162 33.9171C291.695 33.9171 291.025 33.8734 290.136 33.8151C289.247 33.7568 288.577 33.7277 288.14 33.7277C286.129 33.7277 284.744 34.0337 284.016 34.6749C283.273 35.3161 282.908 36.5984 282.908 38.5365C282.908 39.5858 282.923 41.1887 282.952 43.3308C282.996 45.473 282.996 47.0759 282.996 48.1251C282.996 48.8392 283.039 49.8884 283.127 51.3019C283.214 52.7008 283.258 53.75 283.258 54.4495C283.258 55.0324 282.864 55.3676 282.048 55.4404C280.883 55.5424 279.076 55.5862 276.671 55.5862C274.354 55.5862 272.504 55.5133 271.119 55.3676C270.303 55.2656 269.91 54.8721 269.91 54.1581C269.91 52.2054 269.924 49.2763 269.953 45.3855C269.983 41.4802 269.997 38.5511 269.997 36.5984C269.997 30.8569 269.473 26.1209 268.423 22.4196C268.219 21.3121 268.656 21.1663 269.618 21.0498C272.999 20.6417 276.074 20.0443 279.396 19.3885C281.189 19.0388 281.582 19.1408 281.757 20.3503C281.859 21.0935 281.961 22.2301 282.078 23.9351C282.34 23.7019 282.966 23.1336 285.313 21.8513C287.659 20.5689 289.903 19.9423 292.074 19.9423C293.998 19.9423 294.187 20.19 294.085 21.8075C294.056 22.3758 293.983 23.0462 293.896 23.8185C293.75 25.2175 293.663 26.2229 293.633 26.8204C293.633 27.5344 293.648 28.4671 293.677 29.6474C293.706 31.061 293.735 32.0081 293.735 32.4745ZM37.1753 55.9505C30.6906 55.9505 24.1913 55.659 17.7066 55.6007C13.4952 55.5716 9.24013 55.5716 5.07245 55.3384C4.35841 55.2073 4.00867 54.843 4.00867 54.2018C4.00867 51.5351 4.05239 47.5568 4.12525 42.2379C4.19811 36.919 4.24183 32.9262 4.24183 30.274C4.24183 27.4324 4.1544 23.1919 3.97953 17.5378C3.81923 12.5832 3.74637 8.70702 3.71723 5.92371C3.70265 3.767 3.76094 3.91273 5.91764 4.05845C9.77931 4.33533 13.1309 4.39361 17.0363 3.97102C19.6448 3.69414 19.0619 4.0293 18.9162 6.52117C18.2604 17.771 17.4589 30.7112 18.0127 42.0193C18.1292 44.3072 18.4644 43.7972 20.7523 43.768C26.6686 43.6806 32.585 43.156 38.5013 43.0977C39.2154 43.0977 40.352 42.9082 40.352 43.9283C40.352 47.4839 40.1334 50.6316 39.6963 53.3566C39.3465 55.5424 39.5651 55.9505 37.1753 55.9505ZM58.7131 12.7436C57.5765 19.9131 44.3303 19.3594 44.3303 11.2717C44.3303 7.26436 47.9005 4.88907 51.631 4.88907C56.0901 4.8745 59.4418 8.10956 58.7131 12.7436ZM57.8388 38.522C57.8388 40.3144 57.8825 42.9811 57.9554 46.5076C58.0282 49.6261 58.0574 52.0597 58.072 53.7938C58.072 54.5807 58.1885 55.2073 57.1539 55.353C54.9098 55.761 48.1628 55.761 45.9186 55.353C44.7529 55.1636 44.8549 54.7992 44.8549 53.7792C44.8549 52.1034 44.8986 49.5678 44.9714 46.1724C45.0443 42.7917 45.088 40.2415 45.088 38.522C45.088 31.5856 44.8694 26.5435 44.3303 22.4341C44.1263 20.9332 44.5926 20.3649 45.9624 20.5252C49.518 20.9478 53.1028 20.9478 56.673 20.6417C58.174 20.5106 58.9026 20.4669 58.6403 22.3176C58.072 27.0827 57.8388 32.2267 57.8388 38.522ZM99.7925 37.2979C99.2242 39.032 97.5338 41.9756 94.7359 46.1287C92.6666 49.1598 90.8597 51.6225 89.3004 53.5169C88.3532 54.6827 88.1784 55.0178 86.5608 55.3384C84.273 55.7902 80.3967 55.7173 78.0652 55.4696C76.4476 55.2947 76.0979 54.741 75.107 53.648C73.6643 52.0451 71.9011 49.5532 69.6715 46.3182C66.7716 42.0922 65.0229 39.1923 64.4692 37.6185C63.0848 33.8297 63.624 25.9898 63.624 21.6035C63.624 20.7 63.9592 20.4232 64.9064 20.4232C68.4912 20.4232 72.0905 20.6272 75.6753 20.6417C76.5351 20.6417 76.9868 20.6709 76.9868 21.7638C76.9868 26.1355 76.4914 29.662 76.9285 34.2377C77.0451 35.5055 79.5078 40.2124 81.1691 41.9319C81.9997 42.7917 82.3494 42.7625 83.1509 41.8882C84.7393 40.1687 87.0854 35.6658 87.2312 34.4563C87.304 29.1665 87.1874 26.4707 87.1 21.7784C87.0854 20.8603 87.3332 20.6417 88.1638 20.6417C91.6174 20.6272 95.0565 20.4232 98.4081 20.4232C99.0202 20.4232 99.4282 20.7438 99.6031 21.3849C100.244 23.6874 100.521 35.1849 99.7925 37.2979Z" fill="#FFED00"/>
</g>
<defs>
<clipPath id="clip0_1102_8918">
<rect width="297.815" height="86" fill="white"/>
</clipPath>
</defs>
</svg>
