<svg width="21" height="13" viewBox="0 0 21 13" fill="none" xmlns="http://www.w3.org/2000/svg">
<path fill-rule="evenodd" clip-rule="evenodd" d="M10.3523 12.0508H11.5868C11.5868 12.0508 11.9597 12.0098 12.1501 11.8046C12.3253 11.6162 12.3197 11.2624 12.3197 11.2624C12.3197 11.2624 12.2956 9.60596 13.0643 9.36204C13.8222 9.12177 14.7953 10.9629 15.8268 11.6709C16.6068 12.2067 17.1995 12.0892 17.1995 12.0892L19.9575 12.0508C19.9575 12.0508 21.4002 11.9619 20.7161 10.8275C20.6601 10.7347 20.3177 9.98838 18.6655 8.45477C16.9362 6.84967 17.1678 7.10929 19.2509 4.33281C20.5196 2.64192 21.0268 1.6096 20.8684 1.16747C20.7173 0.746354 19.7842 0.85766 19.7842 0.85766L16.6788 0.877005C16.6788 0.877005 16.4487 0.845604 16.2779 0.947657C16.1111 1.04775 16.0037 1.28102 16.0037 1.28102C16.0037 1.28102 15.5122 2.58949 14.8567 3.70227C13.474 6.05034 12.9211 6.17427 12.6951 6.02848C12.1694 5.68867 12.3006 4.66337 12.3006 3.93497C12.3006 1.65951 12.6458 0.710748 11.6286 0.465146C11.291 0.383559 11.0426 0.329729 10.1794 0.321037C9.07135 0.309542 8.13352 0.324401 7.6025 0.584582C7.24924 0.757569 6.97672 1.14307 7.1427 1.16522C7.34793 1.1927 7.81278 1.29055 8.05922 1.62615C8.37744 2.05903 8.36622 3.03135 8.36622 3.03135C8.36622 3.03135 8.54902 5.70998 7.93922 6.04277C7.52063 6.27099 6.94644 5.80502 5.71366 3.67479C5.082 2.5836 4.60509 1.37746 4.60509 1.37746C4.60509 1.37746 4.51313 1.15205 4.34912 1.03149C4.15005 0.885416 3.87193 0.838876 3.87193 0.838876L0.92106 0.85822C0.92106 0.85822 0.47808 0.870557 0.315466 1.06317C0.170797 1.23447 0.303971 1.58886 0.303971 1.58886C0.303971 1.58886 2.6142 6.99378 5.23003 9.71755C7.62858 12.2148 10.3523 12.0508 10.3523 12.0508Z" fill="black"/>
</svg>
